<svg width="36" height="44" viewBox="0 0 36 44" fill="none" xmlns="http://www.w3.org/2000/svg">
<path d="M26 6H30C31.0609 6 32.0783 6.42143 32.8284 7.17157C33.5786 7.92172 34 8.93913 34 10V38C34 39.0609 33.5786 40.0783 32.8284 40.8284C32.0783 41.5786 31.0609 42 30 42H6C4.93913 42 3.92172 41.5786 3.17157 40.8284C2.42143 40.0783 2 39.0609 2 38V10C2 8.93913 2.42143 7.92172 3.17157 7.17157C3.92172 6.42143 4.93913 6 6 6H10" stroke="white" stroke-width="4" stroke-linecap="round" stroke-linejoin="round"/>
<path d="M24 2H12C10.8954 2 10 2.89543 10 4V8C10 9.10457 10.8954 10 12 10H24C25.1046 10 26 9.10457 26 8V4C26 2.89543 25.1046 2 24 2Z" stroke="white" stroke-width="4" stroke-linecap="round" stroke-linejoin="round"/>
<path d="M26 26L10 26" stroke="white" stroke-width="4" stroke-linecap="round" stroke-linejoin="round"/>
<path d="M26 18L10 18" stroke="white" stroke-width="4" stroke-linecap="round" stroke-linejoin="round"/>
<path d="M14 34L12 34L10 34" stroke="white" stroke-width="4" stroke-linecap="round" stroke-linejoin="round"/>
</svg>
