<svg width="120" height="120" viewBox="0 0 120 120" fill="none" xmlns="http://www.w3.org/2000/svg">
<circle cx="60" cy="60" r="60" fill="white"/>
<path opacity="0.6" fill-rule="evenodd" clip-rule="evenodd" d="M101.629 47.6906C97.2372 44.6597 91.2372 45.7112 88.2063 50.103L77.196 66.1854L72.2476 59.072L60.2476 75.5257L68.2888 87.0308C68.9692 88.6391 70.0826 90.1236 71.6909 91.1751C73.361 92.3504 75.3403 92.9071 77.3197 92.9071C79.2372 92.9071 81.2785 92.4123 82.9486 91.1751C84.6187 90.0617 85.6702 88.5772 86.3506 86.9071L104.103 61.0514C107.134 56.7834 106.021 50.7215 101.629 47.6906Z" fill="#1B93C5"/>
<path opacity="0.6" fill-rule="evenodd" clip-rule="evenodd" d="M43.0505 66.4947L31.7927 50.103C28.7618 45.7112 22.7618 44.6597 18.3701 47.6906C13.9783 50.7215 12.9268 56.7215 15.9577 61.1133L34.9474 88.8246C36.8031 91.4844 39.7103 92.9071 42.6793 92.9689C42.7412 92.9689 42.8649 92.9689 42.9268 92.9689C42.9886 92.9689 43.1123 92.9689 43.1742 92.9689C46.1433 92.9071 49.1123 91.4844 50.9061 88.8246L60.1845 75.5875L48.6793 58.3916L43.0505 66.4947Z" fill="#1B93C5"/>
<path opacity="0.6" fill-rule="evenodd" clip-rule="evenodd" d="M58.2053 37.9174C55.1744 33.5257 49.1744 32.4741 44.7827 35.5051C40.3909 38.536 39.3394 44.536 42.3703 48.9277L48.7414 58.3916L60.927 41.7525L58.2053 37.9174Z" fill="#1B93C5"/>
<path opacity="0.6" fill-rule="evenodd" clip-rule="evenodd" d="M76.9477 35.5051C72.556 32.4741 66.556 33.5257 63.525 37.9174L60.8652 41.7525L72.2467 59.1339L72.6178 58.5772L79.3601 48.9277C82.391 44.536 81.3395 38.536 76.9477 35.5051Z" fill="#1B93C5"/>
<path opacity="0.9" fill-rule="evenodd" clip-rule="evenodd" d="M48.6797 58.3921L60.2467 75.588L72.2467 59.1344L60.8653 41.7529L48.6797 58.3921Z" fill="#026792"/>
</svg>
