<svg width="35" height="35" viewBox="0 0 35 35" fill="none" xmlns="http://www.w3.org/2000/svg">
<path d="M0.690209 30.6804C-0.212135 31.5828 -0.255104 33.1941 0.711693 34.1394C1.65701 35.0847 3.26833 35.0633 4.17068 34.1609L17.3191 20.991L30.489 34.1609C31.4129 35.0847 33.0027 35.0847 33.948 34.1394C34.8718 33.1726 34.8933 31.6043 33.948 30.6804L20.7996 17.5105L33.948 4.36208C34.8933 3.43826 34.8933 1.84841 33.948 0.903099C32.9812 -0.0207288 31.4129 -0.0422132 30.489 0.881615L17.3191 14.0515L4.17068 0.881615C3.26833 -0.0207288 1.63552 -0.0636976 0.711693 0.903099C-0.233619 1.84841 -0.212135 3.45974 0.690209 4.36208L13.8601 17.5105L0.690209 30.6804Z" fill="#1B93C5"/>
</svg>
